<mxfile host="app.diagrams.net" modified="2023-03-23T18:44:00.426Z" agent="5.0 (Windows NT 10.0; Win64; x64) AppleWebKit/537.36 (KHTML, like Gecko) Chrome/109.0.0.0 Safari/537.36" etag="WmpUjdXxpDQWPuywRkN5" version="20.8.20" type="github">
  <diagram id="1cee9afd-dcdd-cf27-cb82-50d77dad4855" name="Page-1">
    <mxGraphModel dx="1035" dy="569" grid="1" gridSize="10" guides="1" tooltips="1" connect="1" arrows="1" fold="1" page="1" pageScale="1" pageWidth="850" pageHeight="1100" background="#FFFFFF" math="0" shadow="0">
      <root>
        <mxCell id="0" />
        <mxCell id="1" parent="0" />
        <mxCell id="c1cb8d76720eaeb-1" value="Login" style="ellipse;whiteSpace=wrap;html=1;fillColor=#FF8000;strokeColor=#000066;fontColor=#000099;" parent="1" vertex="1">
          <mxGeometry x="140" y="170" width="120" height="80" as="geometry" />
        </mxCell>
        <mxCell id="c1cb8d76720eaeb-2" value="Visualiza Produtos" style="ellipse;whiteSpace=wrap;html=1;fillColor=#FF8000;strokeColor=#000066;fontColor=#000099;" parent="1" vertex="1">
          <mxGeometry x="325" y="170" width="120" height="80" as="geometry" />
        </mxCell>
        <mxCell id="c1cb8d76720eaeb-6" value="Adiciona Produtos" style="ellipse;whiteSpace=wrap;html=1;fillColor=#FF8000;strokeColor=#000066;fontColor=#000099;" parent="1" vertex="1">
          <mxGeometry x="325" y="290" width="120" height="80" as="geometry" />
        </mxCell>
        <mxCell id="c1cb8d76720eaeb-7" value="Deleta Produtos" style="ellipse;whiteSpace=wrap;html=1;fillColor=#FF8000;strokeColor=#000066;fontColor=#000099;" parent="1" vertex="1">
          <mxGeometry x="660" y="290" width="120" height="80" as="geometry" />
        </mxCell>
        <mxCell id="c1cb8d76720eaeb-9" value="Visualiza Estoque" style="ellipse;whiteSpace=wrap;html=1;fillColor=#FF8000;strokeColor=#000066;fontColor=#000099;" parent="1" vertex="1">
          <mxGeometry x="230" y="380" width="120" height="80" as="geometry" />
        </mxCell>
        <mxCell id="c1cb8d76720eaeb-10" style="html=1;exitX=1;exitY=0.3333333333333333;exitPerimeter=0;jettySize=auto;orthogonalLoop=1;fillColor=#f8cecc;strokeColor=#FF8000;curved=1;fontColor=#000099;entryX=0;entryY=0.5;entryDx=0;entryDy=0;" parent="1" source="c1cb8d76720eaeb-15" target="c1cb8d76720eaeb-1" edge="1">
          <mxGeometry relative="1" as="geometry" />
        </mxCell>
        <mxCell id="c1cb8d76720eaeb-15" value="User Admin" style="shape=umlActor;verticalLabelPosition=bottom;labelBackgroundColor=#ffffff;verticalAlign=top;html=1;strokeWidth=4;fillColor=#FF8000;strokeColor=#000066;fontColor=#000099;" parent="1" vertex="1">
          <mxGeometry x="40" y="190" width="30" height="60" as="geometry" />
        </mxCell>
        <mxCell id="c1cb8d76720eaeb-22" value="Gerenciamento de Produtos" style="shape=umlFrame;whiteSpace=wrap;html=1;strokeWidth=1;width=200;height=30;" parent="1" vertex="1">
          <mxGeometry x="10" y="130" width="830" height="870" as="geometry" />
        </mxCell>
        <mxCell id="c1cb8d76720eaeb-26" value="Edita Produtos" style="ellipse;whiteSpace=wrap;html=1;fillColor=#FF8000;strokeColor=#000066;fontColor=#000099;" parent="1" vertex="1">
          <mxGeometry x="500" y="290" width="120" height="80" as="geometry" />
        </mxCell>
        <mxCell id="ZHmj3fYJwCeBQi8_ATWa-4" style="html=1;exitX=1;exitY=0.5;jettySize=auto;orthogonalLoop=1;curved=1;fontColor=#000099;strokeColor=#FF8000;entryX=0;entryY=0.5;entryDx=0;entryDy=0;exitDx=0;exitDy=0;" parent="1" source="c1cb8d76720eaeb-1" target="c1cb8d76720eaeb-2" edge="1">
          <mxGeometry relative="1" as="geometry">
            <mxPoint x="340" y="125" as="sourcePoint" />
            <mxPoint x="490" y="90" as="targetPoint" />
          </mxGeometry>
        </mxCell>
        <mxCell id="ZHmj3fYJwCeBQi8_ATWa-5" value="Seleciona Produtos" style="ellipse;whiteSpace=wrap;html=1;fillColor=#FF8000;strokeColor=#000066;fontColor=#000099;" parent="1" vertex="1">
          <mxGeometry x="500" y="170" width="120" height="80" as="geometry" />
        </mxCell>
        <mxCell id="ZHmj3fYJwCeBQi8_ATWa-6" style="edgeStyle=none;curved=1;html=1;exitX=1;exitY=0.5;jettySize=auto;orthogonalLoop=1;strokeColor=#FF8000;fontColor=#000099;entryX=0;entryY=0.5;entryDx=0;entryDy=0;exitDx=0;exitDy=0;" parent="1" source="c1cb8d76720eaeb-2" target="ZHmj3fYJwCeBQi8_ATWa-5" edge="1">
          <mxGeometry relative="1" as="geometry">
            <mxPoint x="570" y="114.41" as="sourcePoint" />
            <mxPoint x="630" y="114" as="targetPoint" />
          </mxGeometry>
        </mxCell>
        <mxCell id="ZHmj3fYJwCeBQi8_ATWa-7" value="Exporta para PDF" style="ellipse;whiteSpace=wrap;html=1;fillColor=#FF8000;strokeColor=#000066;fontColor=#000099;" parent="1" vertex="1">
          <mxGeometry x="500" y="380" width="120" height="80" as="geometry" />
        </mxCell>
        <mxCell id="ZHmj3fYJwCeBQi8_ATWa-9" style="html=1;jettySize=auto;orthogonalLoop=1;curved=1;fontColor=#000099;strokeColor=#FF8000;exitX=0.5;exitY=1;exitDx=0;exitDy=0;entryX=0.5;entryY=0;entryDx=0;entryDy=0;" parent="1" source="ZHmj3fYJwCeBQi8_ATWa-5" target="c1cb8d76720eaeb-26" edge="1">
          <mxGeometry relative="1" as="geometry">
            <mxPoint x="450" y="280" as="sourcePoint" />
            <mxPoint x="490" y="270" as="targetPoint" />
          </mxGeometry>
        </mxCell>
        <mxCell id="ZHmj3fYJwCeBQi8_ATWa-10" style="html=1;jettySize=auto;orthogonalLoop=1;curved=1;fontColor=#000099;strokeColor=#FF8000;entryX=0.755;entryY=0.086;entryDx=0;entryDy=0;entryPerimeter=0;exitX=0;exitY=1;exitDx=0;exitDy=0;" parent="1" source="ZHmj3fYJwCeBQi8_ATWa-5" target="c1cb8d76720eaeb-6" edge="1">
          <mxGeometry relative="1" as="geometry">
            <mxPoint x="515" y="230" as="sourcePoint" />
            <mxPoint x="425" y="270" as="targetPoint" />
          </mxGeometry>
        </mxCell>
        <mxCell id="ZHmj3fYJwCeBQi8_ATWa-11" style="html=1;jettySize=auto;orthogonalLoop=1;curved=1;fontColor=#000099;strokeColor=#FF8000;entryX=0.5;entryY=0;entryDx=0;entryDy=0;exitX=1.002;exitY=0.66;exitDx=0;exitDy=0;exitPerimeter=0;" parent="1" source="ZHmj3fYJwCeBQi8_ATWa-5" target="c1cb8d76720eaeb-7" edge="1">
          <mxGeometry relative="1" as="geometry">
            <mxPoint x="610" y="220" as="sourcePoint" />
            <mxPoint x="650" y="269" as="targetPoint" />
          </mxGeometry>
        </mxCell>
        <mxCell id="ZHmj3fYJwCeBQi8_ATWa-12" style="html=1;exitX=0.5;exitY=1;jettySize=auto;orthogonalLoop=1;fillColor=#f8cecc;strokeColor=#FF8000;curved=1;fontColor=#000099;exitDx=0;exitDy=0;entryX=0;entryY=0;entryDx=0;entryDy=0;" parent="1" source="c1cb8d76720eaeb-1" target="c1cb8d76720eaeb-9" edge="1">
          <mxGeometry relative="1" as="geometry">
            <mxPoint x="150" y="440" as="sourcePoint" />
            <mxPoint x="200" y="360" as="targetPoint" />
          </mxGeometry>
        </mxCell>
        <mxCell id="ZHmj3fYJwCeBQi8_ATWa-13" style="edgeStyle=none;curved=1;html=1;jettySize=auto;orthogonalLoop=1;strokeColor=#FF8000;fontColor=#000099;entryX=0;entryY=0.5;entryDx=0;entryDy=0;exitX=1;exitY=0.5;exitDx=0;exitDy=0;" parent="1" source="c1cb8d76720eaeb-9" target="ZHmj3fYJwCeBQi8_ATWa-7" edge="1">
          <mxGeometry relative="1" as="geometry">
            <mxPoint x="440" y="440" as="sourcePoint" />
            <mxPoint x="490" y="449.82" as="targetPoint" />
            <Array as="points" />
          </mxGeometry>
        </mxCell>
        <mxCell id="ZHmj3fYJwCeBQi8_ATWa-14" value="User" style="shape=umlActor;verticalLabelPosition=bottom;labelBackgroundColor=#ffffff;verticalAlign=top;html=1;strokeWidth=4;fillColor=#FF8000;strokeColor=#000066;fontColor=#000099;" parent="1" vertex="1">
          <mxGeometry x="40" y="680" width="30" height="60" as="geometry" />
        </mxCell>
        <mxCell id="ZHmj3fYJwCeBQi8_ATWa-16" value="Visualiza Produtos" style="ellipse;whiteSpace=wrap;html=1;fillColor=#FF8000;strokeColor=#000066;fontColor=#000099;" parent="1" vertex="1">
          <mxGeometry x="325" y="670" width="120" height="80" as="geometry" />
        </mxCell>
        <mxCell id="ZHmj3fYJwCeBQi8_ATWa-17" value="Adiciona Produtos" style="ellipse;whiteSpace=wrap;html=1;fillColor=#FF8000;strokeColor=#000066;fontColor=#000099;" parent="1" vertex="1">
          <mxGeometry x="325" y="790" width="120" height="80" as="geometry" />
        </mxCell>
        <mxCell id="ZHmj3fYJwCeBQi8_ATWa-18" value="Edita Produtos" style="ellipse;whiteSpace=wrap;html=1;fillColor=#FF8000;strokeColor=#000066;fontColor=#000099;" parent="1" vertex="1">
          <mxGeometry x="500" y="790" width="120" height="80" as="geometry" />
        </mxCell>
        <mxCell id="ZHmj3fYJwCeBQi8_ATWa-19" value="Seleciona Produtos" style="ellipse;whiteSpace=wrap;html=1;fillColor=#FF8000;strokeColor=#000066;fontColor=#000099;" parent="1" vertex="1">
          <mxGeometry x="500" y="670" width="120" height="80" as="geometry" />
        </mxCell>
        <mxCell id="ZHmj3fYJwCeBQi8_ATWa-20" style="edgeStyle=none;curved=1;html=1;exitX=1;exitY=0.5;jettySize=auto;orthogonalLoop=1;strokeColor=#FF8000;fontColor=#000099;entryX=0;entryY=0.5;entryDx=0;entryDy=0;exitDx=0;exitDy=0;" parent="1" source="ZHmj3fYJwCeBQi8_ATWa-16" target="ZHmj3fYJwCeBQi8_ATWa-19" edge="1">
          <mxGeometry relative="1" as="geometry">
            <mxPoint x="577.5" y="604.41" as="sourcePoint" />
            <mxPoint x="637.5" y="604" as="targetPoint" />
          </mxGeometry>
        </mxCell>
        <mxCell id="ZHmj3fYJwCeBQi8_ATWa-21" style="html=1;jettySize=auto;orthogonalLoop=1;curved=1;fontColor=#000099;strokeColor=#FF8000;exitX=0.5;exitY=1;exitDx=0;exitDy=0;entryX=0.5;entryY=0;entryDx=0;entryDy=0;" parent="1" source="ZHmj3fYJwCeBQi8_ATWa-19" target="ZHmj3fYJwCeBQi8_ATWa-18" edge="1">
          <mxGeometry relative="1" as="geometry">
            <mxPoint x="457.5" y="770" as="sourcePoint" />
            <mxPoint x="497.5" y="760" as="targetPoint" />
          </mxGeometry>
        </mxCell>
        <mxCell id="ZHmj3fYJwCeBQi8_ATWa-22" style="html=1;jettySize=auto;orthogonalLoop=1;curved=1;fontColor=#000099;strokeColor=#FF8000;entryX=0.755;entryY=0.086;entryDx=0;entryDy=0;entryPerimeter=0;exitX=0;exitY=1;exitDx=0;exitDy=0;" parent="1" source="ZHmj3fYJwCeBQi8_ATWa-19" target="ZHmj3fYJwCeBQi8_ATWa-17" edge="1">
          <mxGeometry relative="1" as="geometry">
            <mxPoint x="522.5" y="720" as="sourcePoint" />
            <mxPoint x="432.5" y="760" as="targetPoint" />
          </mxGeometry>
        </mxCell>
        <mxCell id="ZHmj3fYJwCeBQi8_ATWa-23" value="Login" style="ellipse;whiteSpace=wrap;html=1;fillColor=#FF8000;strokeColor=#000066;fontColor=#000099;" parent="1" vertex="1">
          <mxGeometry x="140" y="670" width="120" height="80" as="geometry" />
        </mxCell>
        <mxCell id="ZHmj3fYJwCeBQi8_ATWa-24" style="html=1;jettySize=auto;orthogonalLoop=1;curved=1;fontColor=#000099;strokeColor=#FF8000;exitX=1;exitY=0.5;exitDx=0;exitDy=0;entryX=0;entryY=0.5;entryDx=0;entryDy=0;" parent="1" source="ZHmj3fYJwCeBQi8_ATWa-23" target="ZHmj3fYJwCeBQi8_ATWa-16" edge="1">
          <mxGeometry relative="1" as="geometry">
            <mxPoint x="270" y="709" as="sourcePoint" />
            <mxPoint x="310" y="709" as="targetPoint" />
          </mxGeometry>
        </mxCell>
        <mxCell id="ZHmj3fYJwCeBQi8_ATWa-25" style="html=1;jettySize=auto;orthogonalLoop=1;curved=1;fontColor=#000099;strokeColor=#FF8000;entryX=0;entryY=0.5;entryDx=0;entryDy=0;exitX=0.5;exitY=0.5;exitDx=0;exitDy=0;exitPerimeter=0;" parent="1" source="ZHmj3fYJwCeBQi8_ATWa-14" target="ZHmj3fYJwCeBQi8_ATWa-23" edge="1">
          <mxGeometry relative="1" as="geometry">
            <mxPoint x="70" y="710" as="sourcePoint" />
            <mxPoint x="135" y="709.4100000000001" as="targetPoint" />
          </mxGeometry>
        </mxCell>
        <mxCell id="ZHmj3fYJwCeBQi8_ATWa-26" value="Gerencia Usuários" style="ellipse;whiteSpace=wrap;html=1;fillColor=#FF8000;strokeColor=#000066;fontColor=#000099;" parent="1" vertex="1">
          <mxGeometry x="100" y="520" width="120" height="80" as="geometry" />
        </mxCell>
        <mxCell id="ZHmj3fYJwCeBQi8_ATWa-27" style="html=1;jettySize=auto;orthogonalLoop=1;fillColor=#f8cecc;strokeColor=#FF8000;curved=1;fontColor=#000099;entryX=0.5;entryY=0;entryDx=0;entryDy=0;exitX=0;exitY=1;exitDx=0;exitDy=0;" parent="1" source="c1cb8d76720eaeb-1" target="ZHmj3fYJwCeBQi8_ATWa-26" edge="1">
          <mxGeometry relative="1" as="geometry">
            <mxPoint x="200" y="250" as="sourcePoint" />
            <mxPoint x="200" y="520" as="targetPoint" />
          </mxGeometry>
        </mxCell>
        <mxCell id="ZHmj3fYJwCeBQi8_ATWa-28" value="Visualiza Estoque" style="ellipse;whiteSpace=wrap;html=1;fillColor=#FF8000;strokeColor=#000066;fontColor=#000099;" parent="1" vertex="1">
          <mxGeometry x="230" y="900" width="120" height="80" as="geometry" />
        </mxCell>
        <mxCell id="ZHmj3fYJwCeBQi8_ATWa-29" value="Exporta para PDF" style="ellipse;whiteSpace=wrap;html=1;fillColor=#FF8000;strokeColor=#000066;fontColor=#000099;" parent="1" vertex="1">
          <mxGeometry x="500" y="900" width="120" height="80" as="geometry" />
        </mxCell>
        <mxCell id="ZHmj3fYJwCeBQi8_ATWa-30" style="edgeStyle=none;curved=1;html=1;jettySize=auto;orthogonalLoop=1;strokeColor=#FF8000;fontColor=#000099;entryX=0;entryY=0.5;entryDx=0;entryDy=0;exitX=1;exitY=0.5;exitDx=0;exitDy=0;" parent="1" source="ZHmj3fYJwCeBQi8_ATWa-28" target="ZHmj3fYJwCeBQi8_ATWa-29" edge="1">
          <mxGeometry relative="1" as="geometry">
            <mxPoint x="440" y="960" as="sourcePoint" />
            <mxPoint x="490" y="969.8199999999999" as="targetPoint" />
            <Array as="points" />
          </mxGeometry>
        </mxCell>
        <mxCell id="ZHmj3fYJwCeBQi8_ATWa-31" style="html=1;exitX=0.5;exitY=1;jettySize=auto;orthogonalLoop=1;fillColor=#f8cecc;strokeColor=#FF8000;curved=1;fontColor=#000099;exitDx=0;exitDy=0;entryX=0;entryY=0;entryDx=0;entryDy=0;" parent="1" source="ZHmj3fYJwCeBQi8_ATWa-23" target="ZHmj3fYJwCeBQi8_ATWa-28" edge="1">
          <mxGeometry relative="1" as="geometry">
            <mxPoint x="212" y="750" as="sourcePoint" />
            <mxPoint x="260" y="892" as="targetPoint" />
          </mxGeometry>
        </mxCell>
      </root>
    </mxGraphModel>
  </diagram>
</mxfile>
